<svg xmlns="http://www.w3.org/2000/svg" width="1000" height="249.9" viewBox="0 0 1000 249.9"><g fill="#BBBDBF"><path d="M689.3 3.1H327.9c-37 0-61.5 19.5-65 48.7-1.3 10.7-2.5 20.3-2.5 20.3h481.5s.9-7.2 1.6-12.9c3.6-29.4-8.8-56.1-54.2-56.1zM738.6 98.1s-1.1 9.7-2.5 20.3c-2.9 21-18.6 36.7-47.6 36.7H585.9l-11.6 93h-81.6l18.5-150h227.4zM34.1 3.1l218.4.1-8.6 68.9H25.6M22.3 98l218.4.1-7.1 57H96.9l-3.5 28.1 136.7-.2-8.1 65.1H3.7M767 3.1h178.1c28.1 0 57.4 13.1 51.6 58.3-1.1 8.1-1.3 10.7-1.3 10.7H758.5l8.5-69zM755.2 98.1l81.7.1-18.7 150.1-81.6.1M910.3 98.1l81.7.1-18.6 150.1-81.7.1M436.5 98.2H257.2c-6 39.2 13.6 56.9 41.4 56.9 15.1 0 110.5-.1 110.5-.1l-3.5 28.1H246.7l-8 65.2h180c5.8-.4 46.3-1.5 60.1-34.6 4.5-10.8 8.5-49.3 9.6-57.4 6.2-46.9-26.3-58.1-51.9-58.1z"/></g></svg>